<svg role="img" xmlns="http://www.w3.org/2000/svg" viewBox="0 0 24 24">
    <title>Check icon</title>
    <g>
        <title>background</title>
        <rect fill="none" id="canvas_background" height="26" width="26" y="-1" x="-1" />
    </g>
    <g>
    <path
        d="M12 2C6.48 2 2 6.48 2 12s4.48 10 10 10 10-4.48 10-10S17.52 2 12 2zM9.29 16.29L5.7 12.7c-.39-.39-.39-1.02 0-1.41.39-.39 1.02-.39 1.41 0L10 14.17l6.88-6.88c.39-.39 1.02-.39 1.41 0 .39.39.39 1.02 0 1.41l-7.59 7.59c-.38.39-1.02.39-1.41 0z"
        fill="#fff" />
    </g>
</svg>