<?xml version="1.0" encoding="utf-8"?>
<!-- Generator: Adobe Illustrator 25.0.1, SVG Export Plug-In . SVG Version: 6.00 Build 0)  -->
<svg version="1.1" id="Layer_1" xmlns="http://www.w3.org/2000/svg" xmlns:xlink="http://www.w3.org/1999/xlink" x="0px" y="0px"
	 viewBox="0 0 24 24" style="enable-background:new 0 0 24 24;" xml:space="preserve">
<style type="text/css">
	.st0{fill:none;}
</style>
<path class="st0" d="M0,0h24v24H0V0z"/>
<path d="M12,2C6.5,2,2,6.5,2,12s4.5,10,10,10s10-4.5,10-10S17.5,2,12,2z M12,20c-4.4,0-8-3.6-8-8s3.6-8,8-8s8,3.6,8,8S16.4,20,12,20
	z" fill="#555555"/>
<g>
	<path class="st0" d="M4.5,4.7h14.9v14.9H4.5V4.7z" fill="#555555"/>
	<path d="M16.4,12.7c0-0.2,0-0.4,0-0.6c0-0.2,0-0.4,0-0.6l1.3-1c0.1-0.1,0.1-0.3,0.1-0.4l-1.2-2.1C16.5,8,16.3,7.9,16.2,8l-1.5,0.6
		c-0.3-0.2-0.6-0.4-1-0.6l-0.2-1.6c0-0.1-0.1-0.3-0.3-0.3h-2.4c-0.1,0-0.3,0.1-0.3,0.3L10.3,8c-0.4,0.1-0.7,0.4-1,0.6L7.8,8
		c-0.1,0-0.3,0-0.4,0.1l-1.2,2.1c-0.1,0.1,0,0.3,0.1,0.4l1.3,1c0,0.2-0.1,0.4-0.1,0.6s0,0.4,0,0.6l-1.3,1c-0.1,0.1-0.1,0.3-0.1,0.4
		l1.2,2.1c0.1,0.1,0.2,0.2,0.4,0.1l1.5-0.6c0.3,0.2,0.6,0.4,1,0.6l0.2,1.6c0,0.1,0.1,0.3,0.3,0.3h2.4c0.1,0,0.3-0.1,0.3-0.3l0.2-1.6
		c0.4-0.1,0.7-0.3,1-0.6l1.5,0.6c0.1,0,0.3,0,0.4-0.1l1.2-2.1c0.1-0.1,0-0.3-0.1-0.4L16.4,12.7z M12,14.4c-1.2,0-2.2-1-2.2-2.2
		s1-2.2,2.2-2.2s2.2,1,2.2,2.2S13.2,14.4,12,14.4z"
		fill="#555555"/>
</g>
</svg>
